<svg version="1" xmlns="http://www.w3.org/2000/svg" width="684" height="684" viewBox="0 0 513.000000 513.000000"><path d="M66.6 146.7C32.1 206.6 3.8 255.8 3.7 256.2c-.1.4 28.1 49.8 62.8 109.8l62.9 109h253.2l62.8-108.8c34.5-59.8 62.8-109.1 62.8-109.5.1-.5-28.2-49.9-62.7-109.8L382.6 38H129.4L66.6 146.7zm359 12.3c54 93.5 56.2 97.5 54.9 100-.8 1.4-26.1 45.2-56.3 97.5l-54.9 95H142.7L86.4 354c-30.9-53.6-56.1-97.7-55.9-98 2.2-3.9 103.3-179 107.2-185.8l5.4-9.2 113.1.2 113.1.3 56.3 97.5z"/><path d="M99.1 165.3C70.5 215 47 256 47 256.5s23.5 41.5 52.1 91.2l52.2 90.3h209.4l52.2-90.3C441.5 298 465 257 465 256.5s-23.5-41.5-52.1-91.2L360.7 75H151.3l-52.2 90.3zm85 59l29.4 47.4.3-47.4.2-47.3h20v134.1l-9.7-.3-9.6-.3-29.1-46.8-29.1-46.8-.3 47.1-.2 47h-21V177H154.7l29.4 47.3zm116.9-4.4c10.1 23.6 18.7 42.8 19 42.6.3-.2 8.7-19.5 18.5-42.9l17.9-42.6H376v134h-21v-82.5L341.6 260l-13.4 31.5-8.5.3-8.4.3-11.6-27.3c-6.4-15-12.5-29.3-13.6-31.8l-2-4.5v41.2L284 311h-21V177H282.7l18.3 42.9z"/></svg>